<svg xmlns="http://www.w3.org/2000/svg" viewBox="0 0 747.07 185.87"><defs><style>.cls-1{fill:#007bff;}.cls-2{fill:#fff;}.cls-3,.cls-4,.cls-5{fill:none;stroke:#fff;stroke-miterlimit:10;}.cls-3{stroke-width:2px;}.cls-4{stroke-width:3px;}.cls-5{stroke-width:4px;}</style></defs><g id="Layer_2" data-name="Layer 2"><g id="Layer_1-2" data-name="Layer 1"><path class="cls-1" d="M292.11,185.28V.5h440A14.52,14.52,0,0,1,746.57,15V170.78a14.52,14.52,0,0,1-14.5,14.5Z"/><path class="cls-1" d="M732.07,1a14,14,0,0,1,14,14V170.78a14,14,0,0,1-14,14H292.61V1H732.07m0-1H291.61V185.78H732.07a15,15,0,0,0,15-15V15a15,15,0,0,0-15-15Z"/><path class="cls-1" d="M286.61,5.09V180.87H15a10,10,0,0,1-10-10V15.09a10,10,0,0,1,10-10H286.61m5-5H15a15,15,0,0,0-15,15V170.87a15,15,0,0,0,15,15H291.61V.09Z"/><path class="cls-1" d="M271.59,109.78v22.29H206.13V36.65h28v73.13Z"/><circle class="cls-1" cx="247.59" cy="22.94" r="3.39"/><circle class="cls-1" cx="254.82" cy="36.03" r="1.58"/><circle class="cls-1" cx="280.77" cy="99.9" r="2.26"/><circle class="cls-1" cx="197.71" cy="54.76" r="3.16"/><circle class="cls-2" cx="210.13" cy="52.28" r="1.58"/><circle class="cls-2" cx="227.96" cy="63.79" r="2.26"/><circle class="cls-2" cx="206.74" cy="99" r="4.06"/><circle class="cls-2" cx="231.12" cy="127.44" r="2.26"/><polyline class="cls-3" points="234.28 40.32 210.35 52.51 227.96 63.79 206.74 99 231.12 127.44 248.72 109.83"/><line class="cls-3" x1="210.35" y1="52.51" x2="205.84" y2="52.51"/><line class="cls-3" x1="231.12" y1="127.44" x2="271.29" y2="113.9"/><line class="cls-3" x1="215.32" y1="126.08" x2="205.84" y2="124.28"/><line class="cls-3" x1="214.8" y1="126.08" x2="234.28" y2="104.42"/><path class="cls-1" d="M190.9,92.14q0,19.65-11.73,31T146.73,134.4q-22.81,0-35.51-12.9T98.53,84.94q0-23.34,12.56-36.31t34.78-13q17.85,0,30.09,9.46t13.82,24.2H162.2a14.55,14.55,0,0,0-5.78-8.43A17.47,17.47,0,0,0,146,57.76a16.09,16.09,0,0,0-13.91,7q-5,7-5,19.74,0,13,5.49,20.37a17.5,17.5,0,0,0,14.81,7.4,17.89,17.89,0,0,0,11.31-3.5,13,13,0,0,0,5.09-9.26l.13-1.32H149.38V79.58H190.9Z"/><circle class="cls-1" cx="145.8" cy="15.94" r="3.61"/><circle class="cls-1" cx="151.67" cy="29.03" r="1.81"/><circle class="cls-2" cx="118.72" cy="55.21" r="1.81"/><circle class="cls-2" cx="146.71" cy="40.32" r="1.81"/><circle class="cls-2" cx="131.36" cy="66.05" r="2.26"/><circle class="cls-2" cx="149.41" cy="88.62" r="2.26"/><circle class="cls-2" cx="163.86" cy="98.1" r="1.81"/><circle class="cls-2" cx="109.69" cy="97.2" r="2.71"/><circle class="cls-2" cx="184.62" cy="108.03" r="1.81"/><circle class="cls-1" cx="177.4" cy="131.5" r="1.81"/><circle class="cls-1" cx="106.08" cy="43.93" r="3.61"/><polyline class="cls-4" points="149.19 36.03 146.48 40.54 118.49 55.44 131.13 66.27 109.47 96.97 98.18 83.88"/><polyline class="cls-4" points="143.32 36.03 146.48 40.54 145.58 58.15"/><line class="cls-4" x1="118.49" y1="55.44" x2="105.4" y2="56.79"/><polyline class="cls-4" points="109.47 96.97 131.13 123.6 144.67 112.32"/><polyline class="cls-4" points="131.13 123.6 184.4 107.8 163.63 97.87 149.19 88.39 165.44 79.36"/><line class="cls-4" x1="163.63" y1="97.87" x2="172.21" y2="79.36"/><line class="cls-4" x1="132.49" y1="105.09" x2="121.2" y2="128.57"/><path class="cls-1" d="M69.23,132h-28V58.82H16.07V36.54H94.36V58.82H69.23Z"/><circle class="cls-1" cx="73.13" cy="15.94" r="4.51"/><circle class="cls-1" cx="81.69" cy="28.82" r="2.27"/><circle class="cls-1" cx="88.46" cy="117.74" r="2.27"/><circle class="cls-1" cx="8.58" cy="51.6" r="4.51"/><circle class="cls-2" cx="29.77" cy="51.38" r="2.27"/><ellipse class="cls-2" cx="60.47" cy="76.32" rx="3.17" ry="3.28"/><circle class="cls-2" cx="48.73" cy="122.25" r="2.27"/><ellipse class="cls-2" cx="40.61" cy="67.18" rx="3.17" ry="3.28"/><line class="cls-5" x1="29.79" y1="51.6" x2="55.97" y2="36.71"/><polyline class="cls-5" points="65 36.71 60.49 76.43 68.61 70.56"/><polyline class="cls-5" points="68.61 79.59 60.49 76.43 40.63 108.03"/><polyline class="cls-5" points="69.52 93.13 48.75 122.47 69.06 117.06"/><line class="cls-5" x1="48.75" y1="122.47" x2="40.63" y2="115.25"/><line class="cls-5" x1="90.73" y1="58.83" x2="94.34" y2="55.21"/><path class="cls-2" d="M400.72,107.3v21.49h-60.1V38.53h26.12V107.3Z"/><path class="cls-2" d="M452.2,133.24a25.48,25.48,0,0,1-17.39-6.32,20.3,20.3,0,0,1-7.21-16q0-10.44,7.77-16.16t22.51-6.65l16-1V83.58A6.78,6.78,0,0,0,471.44,78a9.78,9.78,0,0,0-6.35-2A10.77,10.77,0,0,0,458.48,78a6.82,6.82,0,0,0-2.91,4.82h-24.2a23.2,23.2,0,0,1,9.92-18.61q9.39-6.84,25.26-6.84,15.13,0,24.46,6.91t9.33,18v49.92H473.89v-9.79h-.53a18.7,18.7,0,0,1-8.63,8A28.24,28.24,0,0,1,452.2,133.24Zm10.12-18.12a13.86,13.86,0,0,0,8.13-2.41,7.41,7.41,0,0,0,3.44-6.32v-4.76l-11.51.79a10.37,10.37,0,0,0-5.95,2,5.8,5.8,0,0,0,.07,9A9.22,9.22,0,0,0,462.32,115.12Z"/><path class="cls-2" d="M585,133.12a25.21,25.21,0,0,1-13.72-3.6,20.53,20.53,0,0,1-8.3-10.08h-.53v12.63H535.37V36.65h27.11V72.22H563a21.31,21.31,0,0,1,8.23-10.48A23.85,23.85,0,0,1,584.7,58q13.81,0,21.22,9.72t7.41,27.84q0,18-7.34,27.8T585,133.12Zm-2.62-49.69a10.11,10.11,0,0,0-16.86,0q-3.13,4.53-3.2,12.2t3.17,12.17a10.22,10.22,0,0,0,16.89-.07q3.15-4.49,3.14-12.16T582.41,83.43Z"/><path class="cls-2" d="M638.62,80.73a21,21,0,0,1,9.12-18q9.13-6.54,25.06-6.54t25,6.74q9,6.75,9,18.72h-24.6A6.86,6.86,0,0,0,679.65,76a13.11,13.11,0,0,0-12.9-.72A4.13,4.13,0,0,0,664.54,79c0,2.29,2.36,3.87,7.07,4.76L688.08,87q10.84,2.11,15.9,7T709,107.11a22,22,0,0,1-9.75,18.82q-9.76,7-25.89,7-16.86,0-26.28-6.84A23.76,23.76,0,0,1,637,107.38h26.18a7.84,7.84,0,0,0,3.21,5.72,12.06,12.06,0,0,0,7.37,2.08,12.58,12.58,0,0,0,6.22-1.29,4,4,0,0,0,2.24-3.54,3.31,3.31,0,0,0-1.58-2.81,14.4,14.4,0,0,0-5.29-1.75L661.23,103q-11-2.17-16.83-7.9A19.39,19.39,0,0,1,638.62,80.73Z"/><circle class="cls-2" cx="639.69" cy="60.8" r="4.74"/><circle class="cls-2" cx="714.62" cy="119.48" r="2.48"/><circle class="cls-2" cx="670.39" cy="25.59" r="4.74"/><circle class="cls-2" cx="674.9" cy="34.17" r="2.48"/><circle class="cls-2" cx="531.36" cy="141.6" r="4.74"/><circle class="cls-2" cx="617.12" cy="122.64" r="2.48"/><circle class="cls-1" cx="536.1" cy="56.96" r="4.51"/><circle class="cls-2" cx="562.73" cy="157.18" r="2.71"/><circle class="cls-2" cx="580.11" cy="35.97" r="2.48"/><circle class="cls-2" cx="480.57" cy="37.55" r="3.16"/><circle class="cls-2" cx="421.67" cy="57.19" r="3.39"/><circle class="cls-2" cx="471.32" cy="22.88" r="4.74"/><circle class="cls-2" cx="510.37" cy="125.58" r="2.26"/><circle class="cls-2" cx="413.54" cy="104.59" r="2.03"/><circle class="cls-2" cx="318.75" cy="42.74" r="2.48"/><circle class="cls-2" cx="378.78" cy="22.43" r="2.93"/><circle class="cls-2" cx="387.58" cy="34.39" r="2.26"/></g></g></svg>